<?xml version="1.0" encoding="UTF-8" standalone="no"?>
<!-- Created with Inkscape (http://www.inkscape.org/) -->

<svg
   width="142.05946mm"
   height="213.72755mm"
   viewBox="0 0 142.05946 213.72755"
   version="1.1"
   id="svg1"
   xml:space="preserve"
   xmlns="http://www.w3.org/2000/svg"
   xmlns:svg="http://www.w3.org/2000/svg"><defs
     id="defs1" /><g
     id="layer1"
     transform="translate(-31.65055,-32.619489)"><g
       id="g36"
       transform="translate(-237.74721,-25.026022)"><g
         id="g35"><g
           id="g34"
           transform="translate(234.06691,31.650556)"><circle
             style="fill:#ffccaa;stroke-width:1.00092"
             id="path3"
             cx="106.36059"
             cy="159.35687"
             r="71.029739" /><path
             style="fill:#ff7f2a;stroke-width:1.00092"
             id="path10"
             d="m 102.59885,90.550964 c -0.27239,-5.736888 1.59849,-10.140717 3.88219,-15.304163 0.98204,-1.970985 2.65092,-5.541479 3.97971,-7.344601 2.3265,-3.156963 6.58331,-7.148928 10.07812,-8.969872 1.7031,-0.887389 3.55299,-1.458852 5.32949,-2.188276 9.11941,-2.630795 4.49387,-1.442858 13.87946,-3.552659 0,0 -2.9323,-2.032732 -2.9323,-2.032732 v 0 c -9.43054,2.128972 -4.76956,0.942107 -13.98474,3.553539 -1.81373,0.7366 -3.70508,1.305306 -5.44119,2.2098 -3.45621,1.800646 -7.87561,5.983205 -10.17922,9.100362 -1.29774,1.75605 -3.0357,5.464892 -3.99154,7.385153 -1.2108,2.664299 -2.17463,4.551482 -3.0519,7.304445 -0.824147,2.586244 -1.035166,5.350922 -1.085487,8.046796 z" /><g
             id="g14"
             transform="translate(-227.44238,-225.97026)"><circle
               style="fill:#ff5555;stroke-width:1.00092"
               id="path12"
               cx="350.73233"
               cy="305.09665"
               r="16.561338" /><ellipse
               style="fill:#ff5555;stroke-width:1.00092"
               id="path13"
               cx="330.49069"
               cy="309.88101"
               rx="5.8884759"
               ry="6.6245351" /><circle
               style="fill:#ff5555;stroke-width:1.00092"
               id="circle14"
               cx="310.24905"
               cy="308.77695"
               r="16.561338" /></g><circle
             style="fill:#000000;stroke-width:1.00092"
             id="path14"
             cx="136.90706"
             cy="142.05948"
             r="2.9442379" /><circle
             style="fill:#000000;stroke-width:1.00092"
             id="circle15"
             cx="65.509293"
             cy="147.71724"
             r="2.9442379" /><g
             id="g20"
             transform="translate(275.28625,-15.457249)"><g
               id="g19"
               transform="translate(202.41636,139.8513)"><ellipse
                 style="fill:#ff00ff;stroke-width:1.00092"
                 id="path15"
                 cx="-371.34198"
                 cy="80.598511"
                 rx="18.769516"
                 ry="15.825278" /><path
                 style="fill:#ffff00;stroke-width:0.480835"
                 id="path17"
                 d="m -374.3497,90.609084 c -0.11082,1.57199 -0.8356,3.00874 -1.22273,4.51304 -0.0939,0.36489 -0.14341,0.73979 -0.21512,1.10968 -0.21808,2.3629 0.2467,4.700586 0.79392,6.986486 0.31317,1.43518 1.06858,2.15522 2.15467,3.05754 1.50706,1.08522 3.05624,2.22156 4.84444,2.78454 1.19862,0.2908 2.41982,-0.20771 3.56425,-0.53398 1.63456,-0.57921 3.36373,-0.94049 4.92038,-1.71435 1.74833,-1.1206 2.45579,-3.19685 3.16542,-5.05082 0.44596,-1.5248 1.17753,-2.988646 1.46739,-4.559626 0.1719,-0.93158 0.12623,-1.33165 0.12124,-2.26893 -0.1031,-2.32948 -1.35757,-4.27012 -2.57023,-6.1779 -1.4468,-2.17504 -3.2181,-4.33241 -6.00266,-4.74092 -0.27942,-0.041 -0.56378,-0.0344 -0.84567,-0.0515 -0.96994,0.10424 -0.50518,0.0134 -1.39657,0.26032 0,0 1.55082,1.06672 1.55082,1.06672 v 0 c 0.86342,-0.21616 0.41347,-0.14012 1.35194,-0.21555 0.27396,0.0242 0.55128,0.0234 0.82187,0.0725 0.30558,0.0555 0.6493,0.42339 0.90022,0.24036 0.20662,-0.15071 -0.76779,-0.65286 -0.63068,-0.43697 0.21577,0.33975 0.60749,0.53071 0.87894,0.82787 0.54984,0.60194 1.21794,1.58077 1.6856,2.23527 1.19966,1.87752 2.45783,3.78905 2.60254,6.07926 0.0141,0.91983 0.0642,1.31014 -0.0998,2.22449 -0.28084,1.56632 -0.99782,3.03027 -1.44797,4.546676 -0.69922,1.80805 -1.39389,3.8416 -3.11767,4.91666 -1.55788,0.74477 -3.26573,1.13215 -4.89615,1.68927 -1.13937,0.30661 -2.33834,0.7822 -3.51906,0.42933 -0.6018,-0.21056 -2.03813,-0.99978 0.19091,0.29168 0.1921,0.1113 -0.38136,-0.22767 -0.56716,-0.34919 -0.31347,-0.205 -0.93277,-0.65081 -1.23285,-0.86454 -1.06786,-0.86647 -1.87624,-1.55274 -2.21073,-2.95069 -0.56487,-2.26131 -1.05383,-4.574986 -0.84089,-6.920146 0.0706,-0.3615 0.12036,-0.72769 0.21177,-1.08448 0.38996,-1.52214 1.09902,-2.97448 1.28157,-4.54999 z" /><circle
                 id="path18"
                 style="fill:#ffff00;stroke:#000000;stroke-width:0.264583"
                 cx="-343.73978"
                 cy="114.82528"
                 r="0.37089443" /></g><circle
               style="fill:#ffff00;stroke-width:1.00092"
               id="path20"
               cx="-170.39777"
               cy="221.92192"
               r="6.2565055" /></g></g><path
           id="rect20"
           style="fill:#ff7f2a;stroke-width:3.27969"
           d="m 389.64163,160.71872 c -0.0783,0.0704 -0.15676,0.14128 -0.23513,0.21162 0.11099,0.0642 0.22413,0.13484 0.33796,0.2116 -0.0341,-0.14087 -0.0688,-0.28231 -0.10283,-0.42322 z m -15.66365,13.43745 c -0.22094,0.18054 -0.44176,0.36068 -0.66301,0.54079 0.0869,0.0773 0.16683,0.15523 0.2403,0.23289 0.13945,-0.25864 0.28021,-0.5168 0.42271,-0.77368 z m -24.52925,10.07963 -0.0191,0.0129 c 0.015,0.002 0.0298,0.003 0.045,0.004 -0.009,-0.005 -0.0175,-0.0112 -0.0258,-0.0168 z m -15.48743,9.74094 -7.69255,4.83799 5.22655,9.75214 c 0.23549,-4.47496 0.57841,-8.96652 1.85312,-13.23984 0.20272,-0.44608 0.40953,-0.89643 0.61288,-1.35029 z" /><circle
           id="path6"
           style="fill:#ff7f2a;stroke:#000000;stroke-width:0.264583"
           cx="371.71002"
           cy="144.26765"
           r="0.37089443" /><circle
           id="path19"
           style="fill:#ffff00;stroke:#000000;stroke-width:0.264583"
           cx="395.26395"
           cy="58.148697"
           r="0.37089443" /></g></g></g></svg>
